<svg width="158" height="46" viewBox="0 0 158 46" fill="none" xmlns="http://www.w3.org/2000/svg">
<path fill-rule="evenodd" clip-rule="evenodd" d="M24.5 45.7027C37.7548 45.7027 48.5 35.5384 48.5 23C48.5 10.4616 37.7548 0.297302 24.5 0.297302C11.2452 0.297302 0.5 10.4616 0.5 23C0.5 35.5384 11.2452 45.7027 24.5 45.7027ZM24.2722 15.6429C25.2802 15.5421 26.2958 15.5448 27.3032 15.6508C28.5049 15.7773 29.6866 16.0501 30.8221 16.463L33.4661 17.4244L35.8583 10.8459L33.2143 9.88442C31.5433 9.27678 29.8043 8.87543 28.036 8.68929C26.5535 8.53324 25.059 8.52935 23.5757 8.67768L21.1247 8.92278L20.8909 8.94616L20.6623 9.00059L17.9139 9.65497C15.6694 10.1894 13.8327 11.796 13.0044 13.9495C12.4593 15.3668 12.3901 16.923 12.8072 18.3831L13.0313 19.1674C13.4282 20.5566 14.2247 21.7985 15.3216 22.7387C16.1128 23.4169 17.0389 23.9196 18.0386 24.2137L19.7826 24.7266C20.7517 25.0116 21.7459 25.2034 22.7515 25.2991L22.832 25.3068C23.3193 25.3532 23.8021 25.4386 24.2757 25.5622C24.998 25.7506 25.6945 26.0266 26.3498 26.384L27.3014 26.9031L28.6948 27.7391C28.75 27.7722 28.7838 27.8319 28.7838 27.8963C28.7838 27.9404 28.7679 27.983 28.739 28.0163L28.0654 28.7936C27.6965 29.2192 27.2132 29.5299 26.6729 29.6888L26.0201 29.8808C25.538 30.0226 25.0381 30.0946 24.5357 30.0946H22.8875C22.4744 30.0946 22.0623 30.0521 21.6577 29.9679C19.9576 29.6137 18.4928 28.5437 17.6383 27.0318L16.9524 25.8183L10.8584 29.2627L11.5443 30.4762C13.3908 33.7432 16.5563 36.0553 20.2301 36.8207C21.1042 37.0028 21.9947 37.0946 22.8875 37.0946H24.5357C25.7067 37.0946 26.8718 36.9268 27.9952 36.5964L28.6481 36.4044C30.4746 35.8672 32.1083 34.8168 33.3552 33.3781L34.0288 32.6008C35.1607 31.2948 35.7838 29.6245 35.7838 27.8963C35.7838 25.373 34.4599 23.0348 32.2963 21.7366L30.8413 20.8636L30.7796 20.8267L30.7165 20.7922L29.7018 20.2387C28.5457 19.6081 27.3169 19.1212 26.0427 18.7888C25.2071 18.5708 24.3553 18.4202 23.4957 18.3383L23.4152 18.3307C22.8538 18.2772 22.2988 18.1702 21.7578 18.011L20.0138 17.4981C19.9635 17.4833 19.9169 17.458 19.8772 17.4239C19.822 17.3767 19.7819 17.3142 19.762 17.2444L19.539 16.4637L22.0551 15.8647L24.2722 15.6429Z" fill="white"/>
<path d="M70.3477 19.2756C70.2719 18.6032 69.9594 18.0824 69.4102 17.7131C68.8609 17.339 68.1696 17.152 67.3363 17.152C66.7397 17.152 66.2236 17.2467 65.788 17.4361C65.3524 17.6207 65.0138 17.8764 64.7724 18.2031C64.5356 18.5251 64.4173 18.892 64.4173 19.304C64.4173 19.6496 64.4978 19.9479 64.6587 20.1989C64.8245 20.4498 65.0399 20.6605 65.305 20.831C65.5749 20.9967 65.8638 21.1364 66.1715 21.25C66.4793 21.3589 66.7752 21.4489 67.0593 21.5199L68.4798 21.8892C68.9438 22.0028 69.4196 22.1567 69.9073 22.3509C70.395 22.545 70.8472 22.8007 71.2638 23.1179C71.6805 23.4351 72.0167 23.8281 72.2724 24.2969C72.5328 24.7656 72.663 25.3267 72.663 25.9801C72.663 26.804 72.4499 27.5355 72.0238 28.1747C71.6024 28.8139 70.9892 29.3182 70.1843 29.6875C69.3841 30.0568 68.4158 30.2415 67.2795 30.2415C66.1905 30.2415 65.2482 30.0687 64.4528 29.723C63.6573 29.3774 63.0347 28.8873 62.5849 28.2528C62.1351 27.6136 61.8865 26.8561 61.8391 25.9801H64.0408C64.0835 26.5057 64.2539 26.9437 64.5522 27.294C64.8552 27.6397 65.2411 27.8977 65.7099 28.0682C66.1834 28.2339 66.7018 28.3168 67.2653 28.3168C67.8855 28.3168 68.4371 28.2197 68.9201 28.0256C69.4078 27.8267 69.7913 27.5521 70.0707 27.2017C70.35 26.8466 70.4897 26.4323 70.4897 25.9588C70.4897 25.5279 70.3666 25.1752 70.1204 24.9006C69.8789 24.6259 69.5498 24.3987 69.1332 24.2188C68.7212 24.0388 68.2549 23.8802 67.734 23.7429L66.0153 23.2741C64.8505 22.9569 63.9272 22.4905 63.2454 21.875C62.5683 21.2595 62.2298 20.4451 62.2298 19.4318C62.2298 18.5937 62.457 17.8622 62.9116 17.2372C63.3661 16.6122 63.9817 16.1269 64.7582 15.7812C65.5347 15.4309 66.4106 15.2557 67.386 15.2557C68.3709 15.2557 69.2397 15.4285 69.9925 15.7741C70.7501 16.1198 71.3467 16.5956 71.7823 17.2017C72.2179 17.803 72.4452 18.4943 72.4641 19.2756H70.3477ZM79.7102 30.2202C78.6875 30.2202 77.795 29.9858 77.0327 29.517C76.2704 29.0483 75.6785 28.3925 75.2571 27.5497C74.8357 26.7069 74.625 25.7221 74.625 24.5952C74.625 23.4635 74.8357 22.474 75.2571 21.6264C75.6785 20.7789 76.2704 20.1207 77.0327 19.652C77.795 19.1832 78.6875 18.9489 79.7102 18.9489C80.733 18.9489 81.6255 19.1832 82.3878 19.652C83.1501 20.1207 83.742 20.7789 84.1634 21.6264C84.5848 22.474 84.7955 23.4635 84.7955 24.5952C84.7955 25.7221 84.5848 26.7069 84.1634 27.5497C83.742 28.3925 83.1501 29.0483 82.3878 29.517C81.6255 29.9858 80.733 30.2202 79.7102 30.2202ZM79.7173 28.4375C80.3802 28.4375 80.9295 28.2623 81.3651 27.9119C81.8007 27.5616 82.1226 27.0952 82.331 26.5128C82.544 25.9304 82.6506 25.2888 82.6506 24.5881C82.6506 23.892 82.544 23.2528 82.331 22.6705C82.1226 22.0833 81.8007 21.6122 81.3651 21.2571C80.9295 20.902 80.3802 20.7244 79.7173 20.7244C79.0497 20.7244 78.4957 20.902 78.0554 21.2571C77.6198 21.6122 77.2955 22.0833 77.0824 22.6705C76.8741 23.2528 76.7699 23.892 76.7699 24.5881C76.7699 25.2888 76.8741 25.9304 77.0824 26.5128C77.2955 27.0952 77.6198 27.5616 78.0554 27.9119C78.4957 28.2623 79.0497 28.4375 79.7173 28.4375ZM89.2894 23.5227V30H87.1658V19.0909H89.2042V20.8665H89.3391C89.5901 20.2888 89.9831 19.8248 90.5181 19.4744C91.0579 19.1241 91.7373 18.9489 92.5565 18.9489C93.2998 18.9489 93.9509 19.1051 94.5096 19.4176C95.0683 19.7254 95.5015 20.1847 95.8093 20.7955C96.1171 21.4062 96.271 22.1615 96.271 23.0611V30H94.1474V23.3168C94.1474 22.526 93.9414 21.9081 93.5295 21.4631C93.1175 21.0133 92.5517 20.7884 91.832 20.7884C91.3396 20.7884 90.9016 20.8949 90.5181 21.108C90.1393 21.321 89.8387 21.6335 89.6161 22.0455C89.3983 22.4527 89.2894 22.9451 89.2894 23.5227ZM99.119 30V19.0909H101.243V30H99.119ZM100.191 17.4077C99.8221 17.4077 99.5049 17.2846 99.2397 17.0384C98.9793 16.7874 98.8491 16.4891 98.8491 16.1435C98.8491 15.7931 98.9793 15.4948 99.2397 15.2486C99.5049 14.9976 99.8221 14.8722 100.191 14.8722C100.561 14.8722 100.876 14.9976 101.136 15.2486C101.401 15.4948 101.534 15.7931 101.534 16.1435C101.534 16.4891 101.401 16.7874 101.136 17.0384C100.876 17.2846 100.561 17.4077 100.191 17.4077ZM112.274 21.7543L110.349 22.0952C110.269 21.849 110.141 21.6146 109.966 21.392C109.795 21.1695 109.563 20.9872 109.27 20.8452C108.976 20.7031 108.609 20.6321 108.169 20.6321C107.568 20.6321 107.066 20.767 106.663 21.0369C106.261 21.3021 106.06 21.6454 106.06 22.0668C106.06 22.4313 106.195 22.7249 106.464 22.9474C106.734 23.17 107.17 23.3523 107.771 23.4943L109.504 23.892C110.508 24.1241 111.256 24.4815 111.749 24.9645C112.241 25.4474 112.487 26.0748 112.487 26.8466C112.487 27.5 112.298 28.0824 111.919 28.5938C111.545 29.1004 111.022 29.4981 110.349 29.7869C109.682 30.0758 108.908 30.2202 108.027 30.2202C106.805 30.2202 105.809 29.9598 105.037 29.4389C104.265 28.9134 103.792 28.1676 103.616 27.2017L105.669 26.8892C105.797 27.4242 106.06 27.8291 106.457 28.1037C106.855 28.3736 107.374 28.5085 108.013 28.5085C108.709 28.5085 109.265 28.3641 109.682 28.0753C110.098 27.7817 110.307 27.4242 110.307 27.0028C110.307 26.6619 110.179 26.3755 109.923 26.1435C109.672 25.9115 109.286 25.7363 108.766 25.6179L106.919 25.2131C105.901 24.9811 105.148 24.6117 104.661 24.1051C104.178 23.5985 103.936 22.9569 103.936 22.1804C103.936 21.5365 104.116 20.973 104.476 20.4901C104.836 20.0071 105.333 19.6307 105.967 19.3608C106.602 19.0862 107.329 18.9489 108.148 18.9489C109.327 18.9489 110.255 19.2045 110.932 19.7159C111.609 20.2225 112.056 20.902 112.274 21.7543ZM119.417 30.2202C118.361 30.2202 117.452 29.9811 116.69 29.5028C115.932 29.0199 115.35 28.3546 114.943 27.5071C114.536 26.6596 114.332 25.6889 114.332 24.5952C114.332 23.4872 114.54 22.5095 114.957 21.6619C115.374 20.8097 115.961 20.1444 116.718 19.6662C117.476 19.188 118.368 18.9489 119.396 18.9489C120.225 18.9489 120.963 19.1027 121.612 19.4105C122.261 19.7135 122.784 20.1397 123.181 20.6889C123.584 21.2382 123.823 21.8797 123.899 22.6136H121.832C121.718 22.1023 121.458 21.6619 121.051 21.2926C120.648 20.9233 120.109 20.7386 119.431 20.7386C118.84 20.7386 118.321 20.8949 117.876 21.2074C117.436 21.5152 117.092 21.9555 116.846 22.5284C116.6 23.0966 116.477 23.7689 116.477 24.5455C116.477 25.3409 116.598 26.0275 116.839 26.6051C117.081 27.1828 117.422 27.6302 117.862 27.9474C118.307 28.2647 118.83 28.4233 119.431 28.4233C119.834 28.4233 120.199 28.3499 120.525 28.2031C120.857 28.0516 121.134 27.8362 121.356 27.5568C121.583 27.2775 121.742 26.9413 121.832 26.5483H123.899C123.823 27.2538 123.593 27.8835 123.21 28.4375C122.826 28.9915 122.313 29.4271 121.669 29.7443C121.029 30.0616 120.279 30.2202 119.417 30.2202ZM126.17 30V19.0909H128.222V20.8239H128.336C128.535 20.2367 128.885 19.7751 129.387 19.4389C129.894 19.098 130.467 18.9276 131.106 18.9276C131.238 18.9276 131.395 18.9323 131.575 18.9418C131.759 18.9512 131.904 18.9631 132.008 18.9773V21.0085C131.923 20.9848 131.771 20.9588 131.553 20.9304C131.335 20.8973 131.118 20.8807 130.9 20.8807C130.398 20.8807 129.951 20.9872 129.558 21.2003C129.169 21.4086 128.862 21.6998 128.634 22.0739C128.407 22.4432 128.293 22.8646 128.293 23.3381V30H126.17ZM133.846 30V19.0909H135.969V30H133.846ZM134.918 17.4077C134.549 17.4077 134.231 17.2846 133.966 17.0384C133.706 16.7874 133.576 16.4891 133.576 16.1435C133.576 15.7931 133.706 15.4948 133.966 15.2486C134.231 14.9976 134.549 14.8722 134.918 14.8722C135.287 14.8722 135.602 14.9976 135.863 15.2486C136.128 15.4948 136.26 15.7931 136.26 16.1435C136.26 16.4891 136.128 16.7874 135.863 17.0384C135.602 17.2846 135.287 17.4077 134.918 17.4077ZM138.826 34.0909V19.0909H140.9V20.8594H141.077C141.201 20.6321 141.378 20.3693 141.61 20.071C141.842 19.7727 142.164 19.5123 142.576 19.2898C142.988 19.0625 143.532 18.9489 144.21 18.9489C145.09 18.9489 145.876 19.1714 146.567 19.6165C147.259 20.0616 147.801 20.7031 148.194 21.5412C148.592 22.3793 148.79 23.3878 148.79 24.5668C148.79 25.7457 148.594 26.7566 148.201 27.5994C147.808 28.4375 147.268 29.0838 146.582 29.5384C145.895 29.9882 145.112 30.2131 144.231 30.2131C143.568 30.2131 143.026 30.1018 142.604 29.8793C142.188 29.6567 141.861 29.3963 141.624 29.098C141.388 28.7997 141.205 28.5346 141.077 28.3026H140.95V34.0909H138.826ZM140.907 24.5455C140.907 25.3125 141.018 25.9848 141.241 26.5625C141.463 27.1402 141.785 27.5923 142.207 27.919C142.628 28.241 143.144 28.402 143.755 28.402C144.389 28.402 144.92 28.2339 145.346 27.8977C145.772 27.5568 146.094 27.0952 146.312 26.5128C146.534 25.9304 146.646 25.2746 146.646 24.5455C146.646 23.8258 146.537 23.1795 146.319 22.6065C146.106 22.0336 145.784 21.5814 145.353 21.25C144.927 20.9186 144.394 20.7528 143.755 20.7528C143.139 20.7528 142.619 20.9115 142.192 21.2287C141.771 21.5459 141.451 21.9886 141.234 22.5568C141.016 23.125 140.907 23.7879 140.907 24.5455ZM156.262 19.0909V20.7955H150.303V19.0909H156.262ZM151.901 16.4773H154.025V26.7969C154.025 27.2088 154.086 27.5189 154.21 27.7273C154.333 27.9309 154.491 28.0705 154.685 28.1463C154.884 28.2173 155.1 28.2528 155.332 28.2528C155.502 28.2528 155.651 28.241 155.779 28.2173C155.907 28.1937 156.006 28.1747 156.077 28.1605L156.461 29.9148C156.338 29.9621 156.163 30.0095 155.935 30.0568C155.708 30.1089 155.424 30.1373 155.083 30.142C154.524 30.1515 154.004 30.0521 153.521 29.8438C153.038 29.6354 152.647 29.3134 152.349 28.8778C152.05 28.4422 151.901 27.8954 151.901 27.2372V16.4773Z" fill="white"/>
</svg>
